<?xml version="1.0" encoding="UTF-8" standalone="no"?>
<!-- Created with Inkscape (http://www.inkscape.org/) -->

<svg
   xmlns:dc="http://purl.org/dc/elements/1.1/"
   xmlns:cc="http://creativecommons.org/ns#"
   xmlns:rdf="http://www.w3.org/1999/02/22-rdf-syntax-ns#"
   xmlns:svg="http://www.w3.org/2000/svg"
   xmlns="http://www.w3.org/2000/svg"
   xmlns:sodipodi="http://sodipodi.sourceforge.net/DTD/sodipodi-0.dtd"
   xmlns:inkscape="http://www.inkscape.org/namespaces/inkscape"
   width="67.771072mm"
   height="5.1244502mm"
   viewBox="0 0 240.13372 18.157501"
   id="svg2"
   version="1.1"
   inkscape:version="0.91 r13725"
   sodipodi:docname="logo.svg">
  <defs
     id="defs4" />
  <sodipodi:namedview
     id="base"
     pagecolor="#ffffff"
     bordercolor="#666666"
     borderopacity="1.0"
     inkscape:pageopacity="0.0"
     inkscape:pageshadow="2"
     inkscape:zoom="1.979899"
     inkscape:cx="128.42429"
     inkscape:cy="77.479856"
     inkscape:document-units="px"
     inkscape:current-layer="text4136"
     showgrid="false"
     inkscape:window-width="1920"
     inkscape:window-height="1017"
     inkscape:window-x="0"
     inkscape:window-y="30"
     inkscape:window-maximized="1"
     fit-margin-top="0"
     fit-margin-left="0"
     fit-margin-right="0"
     fit-margin-bottom="0" />
  <metadata
     id="metadata7">
    <rdf:RDF>
      <cc:Work
         rdf:about="">
        <dc:format>image/svg+xml</dc:format>
        <dc:type
           rdf:resource="http://purl.org/dc/dcmitype/StillImage" />
        <dc:title></dc:title>
      </cc:Work>
    </rdf:RDF>
  </metadata>
  <g
     inkscape:label="Layer 1"
     inkscape:groupmode="layer"
     id="layer1"
     transform="translate(-134.37571,-387.59077)">
    <g
       style="font-style:normal;font-weight:normal;font-size:22.5px;line-height:125%;font-family:sans-serif;letter-spacing:0px;word-spacing:0px;fill:#000000;fill-opacity:1;stroke:none;stroke-width:1px;stroke-linecap:butt;stroke-linejoin:miter;stroke-opacity:1"
       id="text4136">
      <path
         d="m 139.52821,405.74827 q -1.3725,0 -2.5425,-0.4725 -1.17,-0.45 -1.89,-1.395 -0.72,-0.9225 -0.72,-2.25 0,-1.665 1.035,-2.385 1.035,-0.7425 2.43,-0.7425 -0.72,0.7425 -1.1025,1.5525 -0.36,0.81 -0.36,1.575 0,1.215 0.9225,2.07 0.945,0.855 2.61,0.855 1.0575,0 2.0025,-0.36 0.9675,-0.3375 1.5525,-1.035 0.6075,-0.6975 0.6075,-1.6425 0,-0.8325 -0.4725,-1.485 -0.4725,-0.6525 -1.17,-1.125 -0.675,-0.4725 -1.845,-1.1025 -1.2375,-0.675 -2.0025,-1.1925 -0.765,-0.5175 -1.2825,-1.26 -0.5175,-0.765 -0.5175,-1.755 0,-1.2825 0.8325,-2.7 0.8325,-1.4175 2.34,-2.3625 1.5075,-0.945 3.375,-0.945 2.8125,0 2.8125,2.3625 0,1.1475 -0.5625,2.565 -0.54,1.395 -1.2375,2.475 -0.99,-0.2025 -0.99,-1.1475 0,-0.4275 0.1575,-0.9675 0.18,-0.5625 0.495,-1.3275 0.315,-0.855 0.4725,-1.35 0.1575,-0.495 0.1575,-0.9 0,-0.4275 -0.27,-0.63 -0.2475,-0.225 -0.9225,-0.225 -1.35,0 -2.475,0.765 -1.125,0.765 -1.8,1.8675 -0.6525,1.08 -0.6525,2.0025 0,0.675 0.405,1.215 0.405,0.54 1.0125,0.945 0.63,0.3825 1.6875,0.945 1.3275,0.72 2.115,1.26 0.81,0.54 1.3725,1.395 0.585,0.855 0.585,2.0475 0,1.485 -0.9,2.5875 -0.8775,1.1025 -2.3175,1.6875 -1.4175,0.585 -2.9475,0.585 z"
         style="font-style:normal;font-variant:normal;font-weight:bold;font-stretch:normal;font-family:'Dancing Script';-inkscape-font-specification:'Dancing Script Bold'"
         id="path4246" />
      <path
         d="m 149.07735,404.82577 q -1.035,0 -1.62,-0.6075 -0.585,-0.585 -0.585,-1.755 0,-0.8775 0.3375,-2.2275 0.3375,-1.3725 0.9,-2.9025 -0.585,-0.1125 -0.7875,-0.2025 l 0,-0.6975 q 0.54,0.0675 1.08,0.1125 1.0125,-2.5425 2.16,-4.365 1.17,-1.8225 1.89,-1.8225 0.2475,0 0.4275,0.18 0.2025,0.18 0.2025,0.4725 0,0.36 -0.315,0.9675 -0.315,0.6075 -1.035,1.845 -0.99,1.665 -1.5525,2.79 2.5875,0 4.1175,-0.1575 l 0,0.7425 q -2.655,0.27 -4.5225,0.27 -1.17,2.7675 -1.17,4.5225 0,0.9225 0.2925,1.305 0.2925,0.3825 0.9225,0.3825 1.125,0 2.295,-1.0125 1.1925,-1.035 2.07,-2.79 l 0.315,0.225 q -0.9225,2.0925 -2.385,3.42 -1.4625,1.305 -3.0375,1.305 z"
         style="font-style:normal;font-variant:normal;font-weight:bold;font-stretch:normal;font-family:'Dancing Script';-inkscape-font-specification:'Dancing Script Bold'"
         id="path4248" />
      <path
         d="m 156.09981,404.78077 q -1.4175,0 -2.205,-0.765 -0.7875,-0.765 -0.7875,-1.9575 0,-1.305 0.8775,-2.8125 0.8775,-1.53 2.25,-2.5425 1.3725,-1.035 2.7,-1.035 0.6975,0 1.17,0.36 0.4725,0.3375 0.4725,1.1475 0,1.08 -0.8325,2.0475 -0.8325,0.945 -2.16,1.5525 -1.305,0.6075 -2.6775,0.765 -0.045,0.225 -0.045,0.5175 0,0.585 0.315,1.17 0.3375,0.585 1.4175,0.585 1.3725,0 2.79,-1.1025 1.44,-1.125 2.3175,-2.79 l 0.45,0.36 q -0.9,2.025 -2.5875,3.2625 -1.665,1.2375 -3.465,1.2375 z m -0.945,-4.0725 q 0.81,-0.09 1.8,-0.6525 1.0125,-0.5625 1.71,-1.3725 0.6975,-0.8325 0.6975,-1.62 0,-0.2475 -0.09,-0.3375 -0.09,-0.09 -0.2925,-0.09 -0.6525,0 -1.44,0.63 -0.765,0.6075 -1.4175,1.5525 -0.6525,0.945 -0.9675,1.89 z"
         style="font-style:normal;font-variant:normal;font-weight:bold;font-stretch:normal;font-family:'Dancing Script';-inkscape-font-specification:'Dancing Script Bold'"
         id="path4250" />
      <path
         d="m 165.63524,394.31827 q -0.4725,0 -0.81,-0.225 -0.315,-0.225 -0.315,-0.6525 0,-0.5175 0.5625,-0.9 0.585,-0.405 1.2375,-0.405 0.9675,0 0.9675,0.8325 0,0.4725 -0.5175,0.9225 -0.5175,0.4275 -1.125,0.4275 z m -2.655,10.1475 q -0.945,0 -1.4625,-0.5625 -0.5175,-0.5625 -0.5175,-1.44 0,-0.9 0.495,-2.43 0.5175,-1.5525 1.2825,-2.7225 0.7875,-1.17 1.575,-1.17 0.2925,0 0.4725,0.18 0.2025,0.1575 0.2025,0.4725 0,0.2025 -0.18,0.5625 -0.18,0.3375 -0.585,0.99 -0.72,1.1925 -1.1475,2.115 -0.405,0.9 -0.405,1.71 0,0.6975 0.2475,0.945 0.2475,0.2475 0.765,0.2475 1.7775,0 3.5325,-3.4425 l 0.3375,0.36 q -0.7875,1.98 -2.0025,3.0825 -1.215,1.1025 -2.61,1.1025 z"
         style="font-style:normal;font-variant:normal;font-weight:bold;font-stretch:normal;font-family:'Dancing Script';-inkscape-font-specification:'Dancing Script Bold'"
         id="path4252" />
      <path
         d="m 174.2559,404.24077 q -0.855,0 -1.3275,-0.4275 -0.4725,-0.4275 -0.4725,-1.125 0,-0.2925 0.09,-0.675 0.1125,-0.3825 0.225,-0.765 0.315,-1.035 0.315,-1.53 0,-0.45 -0.225,-0.6525 -0.225,-0.225 -0.5625,-0.225 -1.1925,0 -2.4075,1.5075 -1.215,1.485 -2.61,3.78 -0.9675,0 -1.4625,-0.6525 l 0.2025,-0.5625 q 1.3275,-3.2175 1.3275,-4.77 0.18,-0.2025 0.5175,-0.36 0.3375,-0.18 0.6525,-0.18 0.3825,0 0.585,0.18 0.2025,0.18 0.2025,0.495 0,0.6075 -0.3825,2.0025 1.0125,-1.35 2.0925,-2.205 1.1025,-0.855 2.16,-0.855 0.9,0 1.395,0.63 0.495,0.6075 0.495,1.4625 0,0.495 -0.135,0.945 -0.1125,0.45 -0.36,1.0125 -0.3825,0.945 -0.3825,1.4175 0,0.3375 0.1575,0.495 0.1575,0.1575 0.3825,0.1575 0.7425,0 1.5975,-1.0125 0.8775,-1.035 1.575,-2.43 l 0.3825,0.315 q -0.81,1.8675 -1.8,2.9475 -0.9675,1.08 -2.2275,1.08 z"
         style="font-style:normal;font-variant:normal;font-weight:bold;font-stretch:normal;font-family:'Dancing Script';-inkscape-font-specification:'Dancing Script Bold'"
         id="path4254" />
      <path
         d="m 179.91817,404.78077 q -1.4175,0 -2.205,-0.765 -0.7875,-0.765 -0.7875,-1.9575 0,-1.305 0.8775,-2.8125 0.8775,-1.53 2.25,-2.5425 1.3725,-1.035 2.7,-1.035 0.6975,0 1.17,0.36 0.4725,0.3375 0.4725,1.1475 0,1.08 -0.8325,2.0475 -0.8325,0.945 -2.16,1.5525 -1.305,0.6075 -2.6775,0.765 -0.045,0.225 -0.045,0.5175 0,0.585 0.315,1.17 0.3375,0.585 1.4175,0.585 1.3725,0 2.79,-1.1025 1.44,-1.125 2.3175,-2.79 l 0.45,0.36 q -0.9,2.025 -2.5875,3.2625 -1.665,1.2375 -3.465,1.2375 z m -0.945,-4.0725 q 0.81,-0.09 1.8,-0.6525 1.0125,-0.5625 1.71,-1.3725 0.6975,-0.8325 0.6975,-1.62 0,-0.2475 -0.09,-0.3375 -0.09,-0.09 -0.2925,-0.09 -0.6525,0 -1.44,0.63 -0.765,0.6075 -1.4175,1.5525 -0.6525,0.945 -0.9675,1.89 z"
         style="font-style:normal;font-variant:normal;font-weight:bold;font-stretch:normal;font-family:'Dancing Script';-inkscape-font-specification:'Dancing Script Bold'"
         id="path4256" />
      <path
         d="m 189.1611,404.37577 q -0.8325,0 -1.35,-0.45 -0.5175,-0.4275 -0.5175,-1.17 0,-0.4275 0.1575,-0.9225 0.18,-0.5175 0.5175,-1.2375 0.2925,-0.63 0.45,-1.0575 0.1575,-0.45 0.1575,-0.7875 0,-0.855 -1.125,-1.44 -0.45,1.125 -1.0575,2.2725 -0.585,1.1475 -1.0575,1.935 l -0.3375,-0.6525 q 1.035,-1.845 1.8225,-4.0725 -0.225,-0.225 -0.225,-0.6075 0,-0.585 0.36,-1.1025 0.36,-0.5175 0.6975,-0.5175 0.225,0 0.36,0.27 0.1575,0.27 0.1575,0.45 0,0.09 -0.1125,0.405 -0.09,0.2925 -0.135,0.4275 0.0225,0.1575 0.18,0.315 0.1575,0.135 0.585,0.405 0.7875,0.5175 1.215,1.0125 0.45,0.4725 0.45,1.2825 0,0.495 -0.18,0.99 -0.1575,0.495 -0.495,1.1925 -0.495,0.99 -0.495,1.4175 0,0.5175 0.5625,0.5175 0.675,0 1.4625,-0.54 0.81,-0.54 1.4625,-1.305 0.675,-0.7875 0.99,-1.4625 l 0.54,0.405 q -0.45,1.0125 -1.26,1.935 -0.81,0.9225 -1.8225,1.5075 -0.99,0.585 -1.9575,0.585 z"
         style="font-style:normal;font-variant:normal;font-weight:bold;font-stretch:normal;font-family:'Dancing Script';-inkscape-font-specification:'Dancing Script Bold'"
         id="path4258" />
      <path
         d="m 195.80492,404.93827 q -1.575,0 -2.34,-0.9225 -0.7425,-0.9 -0.7425,-2.16 0,-0.8775 0.315,-1.215 0.315,-0.36 0.6975,-0.54 0.405,-0.18 0.4725,-0.2475 1.44,-1.485 2.1825,-3.0825 l 0,-0.225 q 0,-0.8325 0.27,-1.2375 0.2925,-0.405 0.7425,-0.405 0.495,0 0.54,0.45 0,0.1125 -0.0675,0.3375 -0.045,0.225 -0.045,0.4725 0,0.4275 0.135,0.9 0.135,0.4725 0.4275,1.2825 0.36,0.99 0.54,1.71 0.2025,0.72 0.2025,1.4625 0,0.3825 -0.09,0.9225 1.53,-0.3825 2.655,-2.5425 l 0.27,0.2025 q -0.45,1.2825 -1.26,2.07 -0.7875,0.7875 -1.8675,0.945 -0.36,0.9 -1.17,1.35 -0.81,0.4725 -1.8675,0.4725 z m 1.4625,-2.5425 q 0.0675,-0.2025 0.0675,-0.6975 -0.0225,-0.72 -0.1575,-1.4175 -0.135,-0.6975 -0.405,-1.8 l -0.2025,-0.81 q -1.1025,1.9125 -1.9575,2.8125 0.3825,0.6525 1.08,1.1925 0.6975,0.5175 1.575,0.72 z m -1.62,1.5525 q 0.45,0 0.8325,-0.225 0.405,-0.225 0.6075,-0.6525 -0.8775,-0.18 -1.62,-0.675 -0.7425,-0.5175 -1.1925,-1.1025 -0.315,0.0675 -0.315,0.6075 0,0.81 0.45,1.44 0.45,0.6075 1.2375,0.6075 z"
         style="font-style:normal;font-variant:normal;font-weight:bold;font-stretch:normal;font-family:'Dancing Script';-inkscape-font-specification:'Dancing Script Bold'"
         id="path4260" />
      <path
         d="m 203.62508,405.05077 q -1.215,0 -1.9575,-0.765 -0.72,-0.7425 -0.72,-2.205 0,-1.44 0.72,-2.8125 0.7425,-1.3725 1.9125,-2.2275 1.17,-0.855 2.3625,-0.855 0.9,0 1.3275,0.45 0.45,0.45 0.45,1.125 0,0.675 -0.3375,1.26 -0.315,0.5625 -0.7875,0.5625 -0.4275,0 -0.6975,-0.4275 0.27,-0.18 0.495,-0.63 0.225,-0.45 0.225,-1.0575 0,-0.3825 -0.4275,-0.3825 -0.72,0 -1.5525,0.855 -0.8325,0.855 -1.395,2.07 -0.5625,1.215 -0.5625,2.205 0,0.72 0.36,1.215 0.36,0.4725 1.2375,0.4725 0.855,0 1.7775,-0.495 0.945,-0.495 1.755,-1.395 0.81,-0.9225 1.2825,-2.115 l 0.45,0.405 q -0.54,1.35 -1.5075,2.43 -0.945,1.08 -2.115,1.6875 -1.17,0.63 -2.295,0.63 z"
         style="font-style:normal;font-variant:normal;font-weight:bold;font-stretch:normal;font-family:'Dancing Script';-inkscape-font-specification:'Dancing Script Bold'"
         id="path4262" />
      <path
         d="m 209.63223,404.64577 q -0.4725,0 -0.6975,-0.72 -0.225,-0.72 -0.225,-1.8225 0,-2.025 1.26,-5.49 1.2825,-3.4875 2.925,-6.1875 1.6425,-2.7 2.6775,-2.7 0.45,0 0.6975,0.495 0.27,0.495 0.27,1.1025 0,1.035 -0.765,2.7675 -0.7425,1.7325 -1.98,3.3525 -1.215,1.5975 -2.52,2.3625 -0.765,2.025 -0.765,3.825 l 0.0225,0.4725 q 0.045,-0.0675 0.2025,-0.495 0.45,-1.17 0.945,-2.115 0.495,-0.945 1.35,-1.755 0.8775,-0.8325 2.025,-0.8325 1.035,0 1.5075,0.675 0.4725,0.6525 0.4725,1.5525 0,0.5175 -0.135,0.9675 -0.135,0.45 -0.405,1.1475 -0.045,0.09 -0.18,0.4275 -0.1125,0.315 -0.18,0.585 -0.045,0.2475 -0.045,0.45 0,0.72 0.6075,0.72 0.495,0 1.17,-0.495 0.675,-0.495 1.3275,-1.3275 0.6525,-0.8325 1.125,-1.8 l 0.36,0.3825 q -0.8325,1.845 -2.025,2.9925 -1.17,1.1475 -2.52,1.1475 -0.8325,0 -1.305,-0.45 -0.45,-0.4275 -0.45,-1.125 0,-0.45 0.315,-1.62 0.3375,-1.1025 0.3375,-1.6425 0,-0.945 -0.81,-0.945 -0.81,0 -1.3725,0.855 -0.54,0.8325 -1.2375,2.475 -0.5625,1.395 -0.99,2.07 -0.4275,0.6975 -0.99,0.6975 z m 2.115,-8.28 q 0.9225,-0.8325 1.7775,-2.16 0.855,-1.3275 1.395,-2.565 0.54,-1.26 0.54,-1.8 -0.27,0.1125 -0.9675,1.1025 -0.6975,0.9675 -1.4625,2.4525 -0.765,1.4625 -1.2825,2.97 z"
         style="font-style:normal;font-variant:normal;font-weight:bold;font-stretch:normal;font-family:'Dancing Script';-inkscape-font-specification:'Dancing Script Bold'"
         id="path4264" />
      <path
         d="m 221.20039,404.51077 q -0.9225,0 -1.35,-0.6075 -0.405,-0.6075 -0.405,-1.5075 0,-0.945 0.3825,-1.9575 0.405,-1.0125 1.035,-1.6875 0.63,-0.675 1.2825,-0.675 0.27,0 0.6975,0.18 0.135,-1.035 0.72,-1.71 0.6075,-0.675 1.6875,-0.675 0.9,0 1.3275,0.5175 0.4275,0.495 0.4275,1.305 0,0.7875 -0.4275,1.8 -0.405,1.0125 -1.0575,2.025 0.27,0.135 0.63,0.135 0.63,0 1.35,-0.405 0.72,-0.4275 1.1025,-1.2825 l 0.405,0.2925 q -0.4725,1.08 -1.2825,1.6425 -0.7875,0.5625 -1.6425,0.5625 -0.5175,0 -1.125,-0.2025 -0.8325,0.99 -1.8225,1.62 -0.99,0.63 -1.935,0.63 z m 3.555,-3.465 q 0.5625,-0.8325 0.9225,-1.7325 0.3825,-0.9 0.3825,-1.62 0,-0.99 -0.63,-0.99 -0.2925,0 -0.6075,0.2925 -0.315,0.2925 -0.5175,0.7875 -0.2025,0.4725 -0.2025,1.0575 0,0.5175 0.18,1.1925 0.18,0.6525 0.4725,1.0125 z m -2.745,2.3175 q 0.405,0 0.99,-0.45 0.585,-0.45 1.17,-1.1475 -1.2825,-1.125 -1.35,-3.3075 -0.27,0.135 -0.6525,0.8325 -0.3825,0.6975 -0.6525,1.5525 -0.27,0.855 -0.27,1.485 0,1.035 0.765,1.035 z"
         style="font-style:normal;font-variant:normal;font-weight:bold;font-stretch:normal;font-family:'Dancing Script';-inkscape-font-specification:'Dancing Script Bold'"
         id="path4266" />
      <path
         d="m 229.55,404.51077 q -0.9225,0 -1.35,-0.6075 -0.405,-0.6075 -0.405,-1.5075 0,-0.945 0.3825,-1.9575 0.405,-1.0125 1.035,-1.6875 0.63,-0.675 1.2825,-0.675 0.27,0 0.6975,0.18 0.135,-1.035 0.72,-1.71 0.6075,-0.675 1.6875,-0.675 0.9,0 1.3275,0.5175 0.4275,0.495 0.4275,1.305 0,0.7875 -0.4275,1.8 -0.405,1.0125 -1.0575,2.025 0.27,0.135 0.63,0.135 0.63,0 1.35,-0.405 0.72,-0.4275 1.1025,-1.2825 l 0.405,0.2925 q -0.4725,1.08 -1.2825,1.6425 -0.7875,0.5625 -1.6425,0.5625 -0.5175,0 -1.125,-0.2025 -0.8325,0.99 -1.8225,1.62 -0.99,0.63 -1.935,0.63 z m 3.555,-3.465 q 0.5625,-0.8325 0.9225,-1.7325 0.3825,-0.9 0.3825,-1.62 0,-0.99 -0.63,-0.99 -0.2925,0 -0.6075,0.2925 -0.315,0.2925 -0.5175,0.7875 -0.2025,0.4725 -0.2025,1.0575 0,0.5175 0.18,1.1925 0.18,0.6525 0.4725,1.0125 z m -2.745,2.3175 q 0.405,0 0.99,-0.45 0.585,-0.45 1.17,-1.1475 -1.2825,-1.125 -1.35,-3.3075 -0.27,0.135 -0.6525,0.8325 -0.3825,0.6975 -0.6525,1.5525 -0.27,0.855 -0.27,1.485 0,1.035 0.765,1.035 z"
         style="font-style:normal;font-variant:normal;font-weight:bold;font-stretch:normal;font-family:'Dancing Script';-inkscape-font-specification:'Dancing Script Bold'"
         id="path4268" />
      <path
         d="m 238.34961,404.46577 q -0.99,0 -1.44,-0.6525 -0.45,-0.6525 -0.45,-1.7325 0,-2.07 1.395,-5.535 1.4175,-3.465 3.1725,-6.21 1.755,-2.745 2.5875,-2.745 0.3825,0 0.6525,0.6075 0.27,0.585 0.2925,1.1925 0,1.035 -0.8325,3.0375 -0.8325,1.98 -2.25,4.0275 -1.395,2.0475 -2.9925,3.3075 -0.2475,1.395 -0.2475,2.115 0,0.7875 0.2475,1.17 0.27,0.3825 0.72,0.3825 0.7875,0 1.665,-1.035 0.9,-1.0575 1.5975,-2.5425 l 0.54,0.2925 q -0.99,2.0475 -2.1825,3.195 -1.1925,1.125 -2.475,1.125 z m 0.54,-6.0975 q 1.215,-1.305 2.2725,-3.06 1.08,-1.755 1.71,-3.33 0.6525,-1.575 0.6525,-2.34 -0.2925,0 -1.1925,1.3725 -0.8775,1.3725 -1.8675,3.42 -0.9675,2.025 -1.575,3.9375 z"
         style="font-style:normal;font-variant:normal;font-weight:bold;font-stretch:normal;font-family:'Dancing Script';-inkscape-font-specification:'Dancing Script Bold'"
         id="path4270" />
      <path
         d="m 252.05,405.74827 q -0.9,0 -1.575,-0.2475 -0.6525,-0.225 -1.1475,-0.8775 0.1125,-0.99 0.8775,-3.6675 0.7875,-2.6775 1.6875,-5.49 0.9225,-2.8125 1.2825,-3.7575 0.27,-0.72 0.7425,-1.44 0.495,-0.7425 1.17,-0.7425 0.3825,0 0.855,0.315 -1.35,3.0825 -2.7225,7.3575 -1.35,4.275 -2.07,7.5825 0.3825,0.135 1.125,0.135 2.3175,0 4.365,-1.7775 2.07,-1.8 3.3075,-4.4325 1.2375,-2.655 1.2375,-5.04 0,-2.61 -1.305,-3.87 -1.305,-1.2825 -3.4875,-1.2825 -1.4625,0 -2.6325,0.54 -1.17,0.5175 -1.845,1.44 -0.6525,0.9225 -0.6525,2.07 0,0.6075 0.2025,1.08 -0.9225,0 -1.3725,-0.3825 -0.4275,-0.405 -0.4275,-1.0575 0,-1.0575 1.0125,-2.1375 1.0125,-1.08 2.7225,-1.7775 1.7325,-0.6975 3.735,-0.6975 3.105,0 4.5675,1.7325 1.485,1.7325 1.485,4.5675 0,3.1275 -1.62,5.8725 -1.62,2.7225 -4.2075,4.3425 -2.5875,1.6425 -5.31,1.6425 z"
         style="font-style:normal;font-variant:normal;font-weight:bold;font-stretch:normal;font-family:'Dancing Script';-inkscape-font-specification:'Dancing Script Bold'"
         id="path4272" />
      <path
         d="m 265.61153,404.78077 q -1.4175,0 -2.205,-0.765 -0.7875,-0.765 -0.7875,-1.9575 0,-1.305 0.8775,-2.8125 0.8775,-1.53 2.25,-2.5425 1.3725,-1.035 2.7,-1.035 0.6975,0 1.17,0.36 0.4725,0.3375 0.4725,1.1475 0,1.08 -0.8325,2.0475 -0.8325,0.945 -2.16,1.5525 -1.305,0.6075 -2.6775,0.765 -0.045,0.225 -0.045,0.5175 0,0.585 0.315,1.17 0.3375,0.585 1.4175,0.585 1.3725,0 2.79,-1.1025 1.44,-1.125 2.3175,-2.79 l 0.45,0.36 q -0.9,2.025 -2.5875,3.2625 -1.665,1.2375 -3.465,1.2375 z m -0.945,-4.0725 q 0.81,-0.09 1.8,-0.6525 1.0125,-0.5625 1.71,-1.3725 0.6975,-0.8325 0.6975,-1.62 0,-0.2475 -0.09,-0.3375 -0.09,-0.09 -0.2925,-0.09 -0.6525,0 -1.44,0.63 -0.765,0.6075 -1.4175,1.5525 -0.6525,0.945 -0.9675,1.89 z"
         style="font-style:normal;font-variant:normal;font-weight:bold;font-stretch:normal;font-family:'Dancing Script';-inkscape-font-specification:'Dancing Script Bold'"
         id="path4274" />
      <path
         d="m 281.77918,405.74827 q -2.16,0 -2.205,-1.7325 0,-0.585 0.2025,-1.3725 0.225,-0.81 0.585,-1.935 0.7425,-2.25 1.575,-4.3425 0.855,-2.115 2.0925,-5.04 l 0.81,-1.9125 q -2.2275,0.0225 -3.645,0.1575 -1.395,0.1125 -2.9475,0.3825 0.135,-1.3275 1.665,-1.845 1.53,-0.5175 4.2975,-0.5175 1.8225,0 4.5225,0.27 2.3625,0.225 3.465,0.225 -0.9,0.855 -2.4075,1.1025 -1.485,0.225 -3.5775,0.225 -1.845,4.545 -3.645,11.16 -0.5175,1.9125 -0.6975,2.745 -0.1575,0.8325 -0.1575,1.7775 0,0.315 0.0675,0.6525 z"
         style="font-style:normal;font-variant:normal;font-weight:bold;font-stretch:normal;font-family:'Dancing Script';-inkscape-font-specification:'Dancing Script Bold'"
         id="path4276" />
      <path
         d="m 288.94649,404.78077 q -1.4175,0 -2.205,-0.765 -0.7875,-0.765 -0.7875,-1.9575 0,-1.305 0.8775,-2.8125 0.8775,-1.53 2.25,-2.5425 1.3725,-1.035 2.7,-1.035 0.6975,0 1.17,0.36 0.4725,0.3375 0.4725,1.1475 0,1.08 -0.8325,2.0475 -0.8325,0.945 -2.16,1.5525 -1.305,0.6075 -2.6775,0.765 -0.045,0.225 -0.045,0.5175 0,0.585 0.315,1.17 0.3375,0.585 1.4175,0.585 1.3725,0 2.79,-1.1025 1.44,-1.125 2.3175,-2.79 l 0.45,0.36 q -0.9,2.025 -2.5875,3.2625 -1.665,1.2375 -3.465,1.2375 z m -0.945,-4.0725 q 0.81,-0.09 1.8,-0.6525 1.0125,-0.5625 1.71,-1.3725 0.6975,-0.8325 0.6975,-1.62 0,-0.2475 -0.09,-0.3375 -0.09,-0.09 -0.2925,-0.09 -0.6525,0 -1.44,0.63 -0.765,0.6075 -1.4175,1.5525 -0.6525,0.945 -0.9675,1.89 z"
         style="font-style:normal;font-variant:normal;font-weight:bold;font-stretch:normal;font-family:'Dancing Script';-inkscape-font-specification:'Dancing Script Bold'"
         id="path4278" />
      <path
         d="m 295.73692,404.46577 q -0.7425,0 -1.2375,-0.6975 -0.495,-0.6975 -0.495,-1.6425 0,-0.81 0.36,-2.025 0.36,-1.215 0.8325,-2.115 0.495,-0.9 0.855,-0.9 0.1575,0 0.4725,0.18 0.3375,0.1575 0.585,0.405 -0.4725,0.6975 -0.99,2.0025 -0.495,1.305 -0.495,2.25 0,0.4275 0.1125,0.9 0.135,0.45 0.5625,0.45 0.8325,0 1.98,-1.845 1.17,-1.8675 2.0025,-3.78 1.35,0.225 1.35,0.765 0,0.045 -0.27,0.6525 -0.4725,1.1025 -0.81,2.0475 -0.3375,0.945 -0.3375,1.6425 0,0.7875 0.6075,0.7875 0.4725,0 1.125,-0.4275 0.675,-0.45 1.3725,-1.26 0.6975,-0.8325 1.215,-1.9125 l 0.3375,0.27 q -0.495,1.215 -1.2825,2.1825 -0.7875,0.9675 -1.71,1.5075 -0.9,0.5625 -1.7325,0.5625 -0.99,0 -1.2825,-0.675 -0.27,-0.6975 -0.27,-1.845 -0.765,1.17 -1.44,1.845 -0.675,0.675 -1.4175,0.675 z"
         style="font-style:normal;font-variant:normal;font-weight:bold;font-stretch:normal;font-family:'Dancing Script';-inkscape-font-specification:'Dancing Script Bold'"
         id="path4280" />
      <path
         d="m 311.54106,404.24077 q -0.855,0 -1.3275,-0.4275 -0.4725,-0.4275 -0.4725,-1.125 0,-0.2925 0.09,-0.675 0.1125,-0.3825 0.225,-0.765 0.315,-1.035 0.315,-1.53 0,-0.45 -0.225,-0.6525 -0.225,-0.225 -0.5625,-0.225 -1.1925,0 -2.4075,1.5075 -1.215,1.485 -2.61,3.78 -0.9675,0 -1.4625,-0.6525 l 0.2025,-0.5625 q 1.3275,-3.2175 1.3275,-4.77 0.18,-0.2025 0.5175,-0.36 0.3375,-0.18 0.6525,-0.18 0.3825,0 0.585,0.18 0.2025,0.18 0.2025,0.495 0,0.6075 -0.3825,2.0025 1.0125,-1.35 2.0925,-2.205 1.1025,-0.855 2.16,-0.855 0.9,0 1.395,0.63 0.495,0.6075 0.495,1.4625 0,0.495 -0.135,0.945 -0.1125,0.45 -0.36,1.0125 -0.3825,0.945 -0.3825,1.4175 0,0.3375 0.1575,0.495 0.1575,0.1575 0.3825,0.1575 0.7425,0 1.5975,-1.0125 0.8775,-1.035 1.575,-2.43 l 0.3825,0.315 q -0.81,1.8675 -1.8,2.9475 -0.9675,1.08 -2.2275,1.08 z"
         style="font-style:normal;font-variant:normal;font-weight:bold;font-stretch:normal;font-family:'Dancing Script';-inkscape-font-specification:'Dancing Script Bold'"
         id="path4282" />
      <path
         d="m 319.04832,394.31827 q -0.4725,0 -0.81,-0.225 -0.315,-0.225 -0.315,-0.6525 0,-0.5175 0.5625,-0.9 0.585,-0.405 1.2375,-0.405 0.9675,0 0.9675,0.8325 0,0.4725 -0.5175,0.9225 -0.5175,0.4275 -1.125,0.4275 z m -2.655,10.1475 q -0.945,0 -1.4625,-0.5625 -0.5175,-0.5625 -0.5175,-1.44 0,-0.9 0.495,-2.43 0.5175,-1.5525 1.2825,-2.7225 0.7875,-1.17 1.575,-1.17 0.2925,0 0.4725,0.18 0.2025,0.1575 0.2025,0.4725 0,0.2025 -0.18,0.5625 -0.18,0.3375 -0.585,0.99 -0.72,1.1925 -1.1475,2.115 -0.405,0.9 -0.405,1.71 0,0.6975 0.2475,0.945 0.2475,0.2475 0.765,0.2475 1.7775,0 3.5325,-3.4425 l 0.3375,0.36 q -0.7875,1.98 -2.0025,3.0825 -1.215,1.1025 -2.61,1.1025 z"
         style="font-style:normal;font-variant:normal;font-weight:bold;font-stretch:normal;font-family:'Dancing Script';-inkscape-font-specification:'Dancing Script Bold'"
         id="path4284" />
      <path
         d="m 322.71899,404.93827 q -1.575,0 -2.34,-0.9225 -0.7425,-0.9 -0.7425,-2.16 0,-0.8775 0.315,-1.215 0.315,-0.36 0.6975,-0.54 0.405,-0.18 0.4725,-0.2475 1.44,-1.485 2.1825,-3.0825 l 0,-0.225 q 0,-0.8325 0.27,-1.2375 0.2925,-0.405 0.7425,-0.405 0.495,0 0.54,0.45 0,0.1125 -0.0675,0.3375 -0.045,0.225 -0.045,0.4725 0,0.4275 0.135,0.9 0.135,0.4725 0.4275,1.2825 0.36,0.99 0.54,1.71 0.2025,0.72 0.2025,1.4625 0,0.3825 -0.09,0.9225 1.53,-0.3825 2.655,-2.5425 l 0.27,0.2025 q -0.45,1.2825 -1.26,2.07 -0.7875,0.7875 -1.8675,0.945 -0.36,0.9 -1.17,1.35 -0.81,0.4725 -1.8675,0.4725 z m 1.4625,-2.5425 q 0.0675,-0.2025 0.0675,-0.6975 -0.0225,-0.72 -0.1575,-1.4175 -0.135,-0.6975 -0.405,-1.8 l -0.2025,-0.81 q -1.1025,1.9125 -1.9575,2.8125 0.3825,0.6525 1.08,1.1925 0.6975,0.5175 1.575,0.72 z m -1.62,1.5525 q 0.45,0 0.8325,-0.225 0.405,-0.225 0.6075,-0.6525 -0.8775,-0.18 -1.62,-0.675 -0.7425,-0.5175 -1.1925,-1.1025 -0.315,0.0675 -0.315,0.6075 0,0.81 0.45,1.44 0.45,0.6075 1.2375,0.6075 z"
         style="font-style:normal;font-variant:normal;font-weight:bold;font-stretch:normal;font-family:'Dancing Script';-inkscape-font-specification:'Dancing Script Bold'"
         id="path4286" />
      <path
         d="m 330.35914,405.43327 q -1.26,0 -1.935,-0.7875 -0.675,-0.7875 -0.675,-2.205 0,-2.115 1.35,-5.6475 1.35,-3.555 3.0825,-6.3 1.7325,-2.7675 2.7225,-2.7675 0.4275,0 0.6525,0.4725 0.2475,0.4725 0.27,1.08 0,1.08 -0.7425,2.835 -0.7425,1.7325 -1.9575,3.33 -1.1925,1.5975 -2.52,2.3625 -0.315,0.585 -0.675,1.935 -0.3375,1.3275 -0.3375,2.565 0,0.99 0.27,1.575 0.2925,0.6075 0.9,0.6075 0.585,0 1.26,-0.54 0.675,-0.5175 1.1025,-1.305 -0.81,-0.45 -1.26,-1.2375 -0.4275,-0.81 -0.4275,-1.7325 0,-1.08 0.585,-1.755 0.585,-0.6975 1.4625,-0.6975 0.765,0 1.215,0.585 0.45,0.5625 0.45,1.665 0,1.3725 -0.675,2.835 l 0.405,0.0225 q 1.035,0 1.71,-0.72 0.675,-0.72 1.1925,-1.7775 l 0.3375,0.4725 q -0.6075,1.395 -1.44,2.07 -0.81,0.6525 -2.0925,0.6525 -0.315,0 -0.4725,-0.0225 -0.6975,1.1025 -1.6425,1.755 -0.945,0.675 -2.115,0.675 z m 0.675,-9.045 q 0.9225,-0.8325 1.7775,-2.16 0.855,-1.35 1.395,-2.5875 0.54,-1.26 0.5625,-1.8 -0.2925,0.1125 -1.0125,1.125 -0.72,1.0125 -1.485,2.4975 -0.765,1.4625 -1.2375,2.925 z m 2.475,5.5125 q 0.405,-0.9225 0.405,-1.9125 0,-0.765 -0.18,-1.17 -0.18,-0.405 -0.4725,-0.405 -0.2925,0 -0.5175,0.405 -0.2025,0.405 -0.2025,0.9675 0,0.5625 0.225,1.17 0.2475,0.585 0.7425,0.945 z"
         style="font-style:normal;font-variant:normal;font-weight:bold;font-stretch:normal;font-family:'Dancing Script';-inkscape-font-specification:'Dancing Script Bold'"
         id="path4288" />
      <path
         d="m 339.11621,404.46577 q -0.99,0 -1.44,-0.6525 -0.45,-0.6525 -0.45,-1.7325 0,-2.07 1.395,-5.535 1.4175,-3.465 3.1725,-6.21 1.755,-2.745 2.5875,-2.745 0.3825,0 0.6525,0.6075 0.27,0.585 0.2925,1.1925 0,1.035 -0.8325,3.0375 -0.8325,1.98 -2.25,4.0275 -1.395,2.0475 -2.9925,3.3075 -0.2475,1.395 -0.2475,2.115 0,0.7875 0.2475,1.17 0.27,0.3825 0.72,0.3825 0.7875,0 1.665,-1.035 0.9,-1.0575 1.5975,-2.5425 l 0.54,0.2925 q -0.99,2.0475 -2.1825,3.195 -1.1925,1.125 -2.475,1.125 z m 0.54,-6.0975 q 1.215,-1.305 2.2725,-3.06 1.08,-1.755 1.71,-3.33 0.6525,-1.575 0.6525,-2.34 -0.2925,0 -1.1925,1.3725 -0.8775,1.3725 -1.8675,3.42 -0.9675,2.025 -1.575,3.9375 z"
         style="font-style:normal;font-variant:normal;font-weight:bold;font-stretch:normal;font-family:'Dancing Script';-inkscape-font-specification:'Dancing Script Bold'"
         id="path4290" />
      <path
         d="m 344.15938,404.51077 q -0.9225,0 -1.35,-0.6075 -0.405,-0.6075 -0.405,-1.5075 0,-0.945 0.3825,-1.9575 0.405,-1.0125 1.035,-1.6875 0.63,-0.675 1.2825,-0.675 0.27,0 0.6975,0.18 0.135,-1.035 0.72,-1.71 0.6075,-0.675 1.6875,-0.675 0.9,0 1.3275,0.5175 0.4275,0.495 0.4275,1.305 0,0.7875 -0.4275,1.8 -0.405,1.0125 -1.0575,2.025 0.27,0.135 0.63,0.135 0.63,0 1.35,-0.405 0.72,-0.4275 1.1025,-1.2825 l 0.405,0.2925 q -0.4725,1.08 -1.2825,1.6425 -0.7875,0.5625 -1.6425,0.5625 -0.5175,0 -1.125,-0.2025 -0.8325,0.99 -1.8225,1.62 -0.99,0.63 -1.935,0.63 z m 3.555,-3.465 q 0.5625,-0.8325 0.9225,-1.7325 0.3825,-0.9 0.3825,-1.62 0,-0.99 -0.63,-0.99 -0.2925,0 -0.6075,0.2925 -0.315,0.2925 -0.5175,0.7875 -0.2025,0.4725 -0.2025,1.0575 0,0.5175 0.18,1.1925 0.18,0.6525 0.4725,1.0125 z m -2.745,2.3175 q 0.405,0 0.99,-0.45 0.585,-0.45 1.17,-1.1475 -1.2825,-1.125 -1.35,-3.3075 -0.27,0.135 -0.6525,0.8325 -0.3825,0.6975 -0.6525,1.5525 -0.27,0.855 -0.27,1.485 0,1.035 0.765,1.035 z"
         style="font-style:normal;font-variant:normal;font-weight:bold;font-stretch:normal;font-family:'Dancing Script';-inkscape-font-specification:'Dancing Script Bold'"
         id="path4292" />
      <path
         d="m 353.63399,404.78077 q -1.4175,0 -2.205,-0.765 -0.7875,-0.765 -0.7875,-1.9575 0,-1.305 0.8775,-2.8125 0.8775,-1.53 2.25,-2.5425 1.3725,-1.035 2.7,-1.035 0.6975,0 1.17,0.36 0.4725,0.3375 0.4725,1.1475 0,1.08 -0.8325,2.0475 -0.8325,0.945 -2.16,1.5525 -1.305,0.6075 -2.6775,0.765 -0.045,0.225 -0.045,0.5175 0,0.585 0.315,1.17 0.3375,0.585 1.4175,0.585 1.3725,0 2.79,-1.1025 1.44,-1.125 2.3175,-2.79 l 0.45,0.36 q -0.9,2.025 -2.5875,3.2625 -1.665,1.2375 -3.465,1.2375 z m -0.945,-4.0725 q 0.81,-0.09 1.8,-0.6525 1.0125,-0.5625 1.71,-1.3725 0.6975,-0.8325 0.6975,-1.62 0,-0.2475 -0.09,-0.3375 -0.09,-0.09 -0.2925,-0.09 -0.6525,0 -1.44,0.63 -0.765,0.6075 -1.4175,1.5525 -0.6525,0.945 -0.9675,1.89 z"
         style="font-style:normal;font-variant:normal;font-weight:bold;font-stretch:normal;font-family:'Dancing Script';-inkscape-font-specification:'Dancing Script Bold'"
         id="path4294" />
      <path
         d="m 370.48192,404.48827 q -0.8325,0 -1.2825,-0.495 -0.45,-0.495 -0.45,-1.26 0,-0.36 0.09,-0.7875 0.1125,-0.45 0.2475,-0.8325 0.2925,-0.9225 0.2925,-1.35 0,-0.675 -0.5175,-0.675 -0.495,0 -1.1475,0.72 -0.6525,0.72 -1.755,2.3625 -0.27,0.405 -0.81,1.3725 l -0.4275,0.765 q -0.405,0 -0.8775,-0.1575 -0.4725,-0.1575 -0.4725,-0.4275 0,-0.225 0.4725,-1.44 0.45,-1.17 0.72,-2.0475 0.2925,-0.8775 0.2925,-1.4625 0,-0.675 -0.4725,-0.675 -0.6075,0 -1.575,0.9675 -0.9675,0.945 -1.9125,2.43 -0.945,1.4625 -1.4625,2.9025 -0.405,0 -0.945,-0.225 -0.5625,-0.225 -0.5625,-0.3825 l 1.44,-5.76 q 0.0675,-0.2475 0.4725,-0.4275 0.4275,-0.2025 0.765,-0.2025 0.3375,0 0.54,0.2025 0.225,0.2025 0.225,0.54 0,0.36 -0.315,1.62 1.08,-1.485 2.2275,-2.4525 1.1475,-0.99 2.16,-0.99 0.765,0 1.08,0.54 0.3375,0.54 0.3375,1.35 0,0.4275 -0.09,0.81 -0.09,0.36 -0.2925,0.99 1.575,-2.3175 3.2625,-2.3175 0.81,0 1.17,0.495 0.3825,0.4725 0.3825,1.1925 0,0.72 -0.45,2.025 -0.0225,0.09 -0.18,0.585 -0.135,0.495 -0.135,0.81 0,0.6075 0.5625,0.6075 0.81,0 1.575,-1.035 0.7875,-1.035 1.4625,-2.475 l 0.3825,0.4725 q -0.6525,1.6875 -1.6875,2.9025 -1.0125,1.215 -2.34,1.215 z"
         style="font-style:normal;font-variant:normal;font-weight:bold;font-stretch:normal;font-family:'Dancing Script';-inkscape-font-specification:'Dancing Script Bold'"
         id="path4296" />
    </g>
  </g>
</svg>
